<svg width="98" height="99" viewBox="0 0 98 99" fill="none" xmlns="http://www.w3.org/2000/svg">
<path d="M12.2254 37.335C13.3062 37.335 14.3427 36.9055 15.1069 36.1409C15.8711 35.3764 16.3005 34.3394 16.3005 33.2581V21.0274C16.3005 19.9461 16.7298 18.9091 17.494 18.1446C18.2582 17.38 19.2948 16.9505 20.3755 16.9505H32.6007C33.6814 16.9505 34.7179 16.5209 35.4822 15.7564C36.2464 14.9918 36.6757 13.9548 36.6757 12.8735C36.6757 11.7923 36.2464 10.7553 35.4822 9.99073C34.7179 9.22616 33.6814 8.79663 32.6007 8.79663H20.3755C17.1332 8.79663 14.0237 10.0852 11.731 12.3789C9.43838 14.6726 8.15038 17.7836 8.15038 21.0274V33.2581C8.15038 34.3394 8.57971 35.3764 9.34393 36.1409C10.1081 36.9055 11.1447 37.335 12.2254 37.335ZM32.6007 82.1811H20.3755C19.2948 82.1811 18.2582 81.7516 17.494 80.987C16.7298 80.2224 16.3005 79.1855 16.3005 78.1042V65.8734C16.3005 64.7922 15.8711 63.7552 15.1069 62.9906C14.3427 62.2261 13.3062 61.7965 12.2254 61.7965C11.1447 61.7965 10.1081 62.2261 9.34393 62.9906C8.57971 63.7552 8.15038 64.7922 8.15038 65.8734V78.1042C8.15038 81.348 9.43838 84.4589 11.731 86.7526C14.0237 89.0463 17.1332 90.3349 20.3755 90.3349H32.6007C33.6814 90.3349 34.7179 89.9054 35.4822 89.1408C36.2464 88.3763 36.6757 87.3393 36.6757 86.258C36.6757 85.1768 36.2464 84.1398 35.4822 83.3752C34.7179 82.6106 33.6814 82.1811 32.6007 82.1811ZM48.9009 33.2581C45.677 33.2581 42.5255 34.2146 39.845 36.0065C37.1644 37.7984 35.0752 40.3453 33.8414 43.3251C32.6077 46.3049 32.2849 49.5839 32.9139 52.7472C33.5428 55.9106 35.0953 58.8164 37.3749 61.097C39.6545 63.3777 42.5589 64.9309 45.7209 65.5601C48.8828 66.1893 52.1602 65.8664 55.1387 64.6321C58.1172 63.3978 60.6629 61.3076 62.454 58.6258C64.2451 55.944 65.2011 52.7911 65.2011 49.5658C65.2011 45.2407 63.4837 41.0928 60.4268 38.0345C57.37 34.9762 53.2239 33.2581 48.9009 33.2581ZM48.9009 57.7196C47.2889 57.7196 45.7132 57.2414 44.3729 56.3454C43.0326 55.4495 41.988 54.176 41.3712 52.6861C40.7543 51.1962 40.5929 49.5567 40.9074 47.9751C41.2218 46.3934 41.9981 44.9405 43.1379 43.8002C44.2777 42.6598 45.7299 41.8832 47.3109 41.5686C48.8918 41.254 50.5305 41.4155 52.0198 42.0326C53.509 42.6498 54.7819 43.6949 55.6774 45.0358C56.573 46.3766 57.051 47.9531 57.051 49.5658C57.051 51.7283 56.1923 53.8023 54.6639 55.3314C53.1354 56.8605 51.0624 57.7196 48.9009 57.7196ZM77.4262 8.79663H65.2011C64.1203 8.79663 63.0838 9.22616 62.3196 9.99073C61.5553 10.7553 61.126 11.7923 61.126 12.8735C61.126 13.9548 61.5553 14.9918 62.3196 15.7564C63.0838 16.5209 64.1203 16.9505 65.2011 16.9505H77.4262C78.507 16.9505 79.5435 17.38 80.3077 18.1446C81.0719 18.9091 81.5013 19.9461 81.5013 21.0274V33.2581C81.5013 34.3394 81.9306 35.3764 82.6948 36.1409C83.459 36.9055 84.4955 37.335 85.5763 37.335C86.6571 37.335 87.6936 36.9055 88.4578 36.1409C89.222 35.3764 89.6514 34.3394 89.6514 33.2581V21.0274C89.6514 17.7836 88.3633 14.6726 86.0707 12.3789C83.778 10.0852 80.6685 8.79663 77.4262 8.79663ZM85.5763 61.7965C84.4955 61.7965 83.459 62.2261 82.6948 62.9906C81.9306 63.7552 81.5013 64.7922 81.5013 65.8734V78.1042C81.5013 79.1855 81.0719 80.2224 80.3077 80.987C79.5435 81.7516 78.507 82.1811 77.4262 82.1811H65.2011C64.1203 82.1811 63.0838 82.6106 62.3196 83.3752C61.5553 84.1398 61.126 85.1768 61.126 86.258C61.126 87.3393 61.5553 88.3763 62.3196 89.1408C63.0838 89.9054 64.1203 90.3349 65.2011 90.3349H77.4262C80.6685 90.3349 83.778 89.0463 86.0707 86.7526C88.3633 84.4589 89.6514 81.348 89.6514 78.1042V65.8734C89.6514 64.7922 89.222 63.7552 88.4578 62.9906C87.6936 62.2261 86.6571 61.7965 85.5763 61.7965Z" fill="white"/>
</svg>
