<svg width="18" height="18" viewBox="0 0 18 18" fill="none" xmlns="http://www.w3.org/2000/svg">
<path d="M13.7687 3.98932C13.6961 3.93292 13.6113 3.89286 13.5204 3.87208C13.4296 3.85131 13.335 3.85035 13.2437 3.86929C12.5759 4.00369 11.8865 4.00541 11.2179 3.87432C10.5493 3.74323 9.91578 3.48211 9.35625 3.10705C9.25163 3.03735 9.12733 3 9 3C8.87267 3 8.74837 3.03735 8.64375 3.10705C8.08422 3.48211 7.45067 3.74323 6.78211 3.87432C6.11354 4.00541 5.42411 4.00369 4.75625 3.86929C4.66496 3.85035 4.57042 3.85131 4.47957 3.87208C4.38871 3.89286 4.30386 3.93292 4.23125 3.98932C4.15874 4.04581 4.10033 4.11718 4.06031 4.1982C4.02029 4.27921 3.99969 4.3678 4 4.45747V8.92887C3.99945 9.78939 4.21299 10.6376 4.62284 11.4028C5.03269 12.1681 5.62699 12.8282 6.35625 13.3282L8.6375 14.8887C8.74335 14.9611 8.87006 15 9 15C9.12994 15 9.25665 14.9611 9.3625 14.8887L11.6437 13.3282C12.373 12.8282 12.9673 12.1681 13.3772 11.4028C13.787 10.6376 14.0006 9.78939 14 8.92887V4.45747C14.0003 4.3678 13.9797 4.27921 13.9397 4.1982C13.8997 4.11718 13.8413 4.04581 13.7687 3.98932ZM12.75 8.92887C12.7505 9.59793 12.5846 10.2574 12.266 10.8525C11.9475 11.4475 11.4856 11.9609 10.9187 12.3499L9 13.6644L7.08125 12.3499C6.5144 11.9609 6.05249 11.4475 5.73397 10.8525C5.41545 10.2574 5.24952 9.59793 5.25 8.92887V5.14769C6.56027 5.25538 7.87253 4.96344 9 4.31342C10.1275 4.96344 11.4397 5.25538 12.75 5.14769V8.92887ZM9.9625 7.55444L8.28125 9.17495L7.725 8.63478C7.60731 8.52176 7.44769 8.45827 7.28125 8.45827C7.11481 8.45827 6.95519 8.52176 6.8375 8.63478C6.71981 8.74779 6.65369 8.90108 6.65369 9.06091C6.65369 9.22074 6.71981 9.37403 6.8375 9.48704L7.8375 10.4473C7.8956 10.5036 7.96473 10.5482 8.04089 10.5787C8.11705 10.6092 8.19874 10.6249 8.28125 10.6249C8.36376 10.6249 8.44545 10.6092 8.52161 10.5787C8.59777 10.5482 8.6669 10.5036 8.725 10.4473L10.875 8.4007C10.9927 8.28769 11.0588 8.1344 11.0588 7.97457C11.0588 7.81474 10.9927 7.66145 10.875 7.54844C10.7573 7.43542 10.5977 7.37193 10.4312 7.37193C10.2648 7.37193 10.1052 7.43542 9.9875 7.54844L9.9625 7.55444Z" fill="#2751E8"/>
</svg>
