<svg width="25" height="24" viewBox="0 0 25 24" fill="none" xmlns="http://www.w3.org/2000/svg">
<path d="M11.5 16H21.5C21.7652 16 22.0196 16.1054 22.2071 16.2929C22.3946 16.4804 22.5 16.7348 22.5 17C22.5 17.2652 22.3946 17.5196 22.2071 17.7071C22.0196 17.8946 21.7652 18 21.5 18H11.5C11.2348 18 10.9804 17.8946 10.7929 17.7071C10.6054 17.5196 10.5 17.2652 10.5 17C10.5 16.7348 10.6054 16.4804 10.7929 16.2929C10.9804 16.1054 11.2348 16 11.5 16ZM21.5 8H3.5C3.23478 8 2.98043 7.89464 2.79289 7.70711C2.60536 7.51957 2.5 7.26522 2.5 7C2.5 6.73478 2.60536 6.48043 2.79289 6.29289C2.98043 6.10536 3.23478 6 3.5 6H21.5C21.7652 6 22.0196 6.10536 22.2071 6.29289C22.3946 6.48043 22.5 6.73478 22.5 7C22.5 7.26522 22.3946 7.51957 22.2071 7.70711C22.0196 7.89464 21.7652 8 21.5 8ZM3.5 11H21.5C21.7652 11 22.0196 11.1054 22.2071 11.2929C22.3946 11.4804 22.5 11.7348 22.5 12C22.5 12.2652 22.3946 12.5196 22.2071 12.7071C22.0196 12.8946 21.7652 13 21.5 13H3.5C3.23478 13 2.98043 12.8946 2.79289 12.7071C2.60536 12.5196 2.5 12.2652 2.5 12C2.5 11.7348 2.60536 11.4804 2.79289 11.2929C2.98043 11.1054 3.23478 11 3.5 11Z" fill="white"/>
</svg>
