<svg width="24" height="25" viewBox="0 0 24 25" fill="none" xmlns="http://www.w3.org/2000/svg">
<path d="M19.07 5.85867C18.1476 4.90357 17.0441 4.14174 15.8241 3.61765C14.604 3.09356 13.2918 2.8177 11.964 2.80616C10.6362 2.79463 9.31944 3.04764 8.09048 3.55045C6.86151 4.05326 5.745 4.79579 4.80607 5.73472C3.86714 6.67365 3.12461 7.79016 2.6218 9.01913C2.11899 10.2481 1.86598 11.5649 1.87751 12.8927C1.88905 14.2205 2.16491 15.5327 2.689 16.7527C3.21309 17.9728 3.97492 19.0762 4.93002 19.9987C5.85249 20.9538 6.95593 21.7156 8.17597 22.2397C9.39601 22.7638 10.7082 23.0396 12.036 23.0512C13.3638 23.0627 14.6806 22.8097 15.9096 22.3069C17.1385 21.8041 18.255 21.0615 19.194 20.1226C20.1329 19.1837 20.8754 18.0672 21.3782 16.8382C21.881 15.6092 22.1341 14.2924 22.1225 12.9647C22.111 11.6369 21.8351 10.3247 21.311 9.10462C20.7869 7.88458 20.0251 6.78114 19.07 5.85867ZM17.66 18.5887C16.3521 19.8981 14.6306 20.7135 12.7888 20.896C10.9471 21.0785 9.09902 20.6167 7.55954 19.5894C6.02006 18.5622 4.88438 17.0329 4.34599 15.2622C3.80761 13.4914 3.89982 11.5888 4.60693 9.87845C5.31404 8.1681 6.59229 6.75582 8.22391 5.88223C9.85553 5.00864 11.7396 4.7278 13.555 5.08754C15.3705 5.44728 17.0051 6.42536 18.1803 7.85513C19.3555 9.2849 19.9986 11.0779 20 12.9287C20.0036 13.98 19.7986 15.0215 19.3969 15.9931C18.9953 16.9646 18.4049 17.8468 17.66 18.5887Z" fill="#353535"/>
<path d="M17.1713 12.5437C17.2216 12.6658 17.2472 12.7966 17.2467 12.9286C17.2472 13.0606 17.2216 13.1914 17.1713 13.3135C17.1211 13.4356 17.0471 13.5465 16.9538 13.6398C16.8604 13.7332 16.7495 13.8071 16.6275 13.8574C16.5054 13.9076 16.3746 13.9332 16.2426 13.9327L12.997 13.9256L13.004 17.1712C13.0046 17.3033 12.979 17.4341 12.9287 17.5561C12.8784 17.6782 12.8045 17.7891 12.7111 17.8825C12.6178 17.9758 12.5069 18.0497 12.3848 18.1C12.2628 18.1503 12.1319 18.1759 11.9999 18.1753C11.8679 18.1759 11.7371 18.1503 11.6151 18.1C11.493 18.0497 11.3821 17.9758 11.2887 17.8825C11.1954 17.7891 11.1214 17.6782 11.0712 17.5561C11.0209 17.4341 10.9953 17.3033 10.9958 17.1712L11.0029 13.9256L7.7573 13.9327C7.62529 13.9332 7.49448 13.9076 7.37241 13.8574C7.25034 13.8071 7.13944 13.7332 7.04609 13.6398C6.95275 13.5465 6.8788 13.4356 6.82854 13.3135C6.77827 13.1914 6.75267 13.0606 6.75321 12.9286C6.75267 12.7966 6.77827 12.6658 6.82854 12.5437C6.8788 12.4216 6.95275 12.3107 7.04609 12.2174C7.13944 12.1241 7.25034 12.0501 7.37241 11.9998C7.49448 11.9496 7.62529 11.924 7.7573 11.9245L11.0029 11.9316L10.9958 8.68596C10.9958 8.41966 11.1016 8.16427 11.2899 7.97596C11.4782 7.78766 11.7336 7.68187 11.9999 7.68187C12.2662 7.68187 12.5216 7.78766 12.7099 7.97596C12.8982 8.16427 13.004 8.41966 13.004 8.68596L12.997 11.9316L16.2426 11.9245C16.3746 11.924 16.5054 11.9496 16.6275 11.9998C16.7495 12.0501 16.8604 12.1241 16.9538 12.2174C17.0471 12.3107 17.1211 12.4216 17.1713 12.5437Z" fill="#353535"/>
</svg>
