<svg width="18" height="18" viewBox="0 0 18 18" fill="none" xmlns="http://www.w3.org/2000/svg">
<path d="M10.8567 9.35466C11.3493 8.96921 11.7089 8.44065 11.8854 7.8425C12.0619 7.24436 12.0465 6.60638 11.8414 6.01732C11.6364 5.42826 11.2518 4.91742 10.7412 4.55586C10.2306 4.1943 9.61935 4 8.99255 4C8.36574 4 7.75452 4.1943 7.24392 4.55586C6.73332 4.91742 6.34873 5.42826 6.14366 6.01732C5.93858 6.60638 5.92322 7.24436 6.09971 7.8425C6.27621 8.44065 6.63577 8.96921 7.12839 9.35466C6.28428 9.69099 5.54776 10.2488 4.99736 10.9687C4.44696 11.6886 4.10331 12.5435 4.00303 13.4423C3.99577 13.5079 4.00158 13.5743 4.02013 13.6377C4.03867 13.7011 4.06959 13.7602 4.11112 13.8118C4.19498 13.9158 4.31697 13.9824 4.45023 13.997C4.58349 14.0116 4.71712 13.9729 4.82172 13.8895C4.92631 13.8061 4.99331 13.6848 5.00797 13.5522C5.1183 12.5754 5.58666 11.6732 6.32354 11.0181C7.06043 10.363 8.01419 10.0008 9.0026 10.0008C9.991 10.0008 10.9448 10.363 11.6817 11.0181C12.4185 11.6732 12.8869 12.5754 12.9972 13.5522C13.0109 13.675 13.0698 13.7884 13.1626 13.8706C13.2554 13.9527 13.3755 13.9977 13.4997 13.997H13.555C13.6867 13.9819 13.8071 13.9157 13.8899 13.8127C13.9727 13.7098 14.0113 13.5784 13.9971 13.4473C13.8964 12.5459 13.5509 11.6888 12.9977 10.9678C12.4444 10.2469 11.7043 9.68921 10.8567 9.35466ZM8.99255 8.99987C8.59503 8.99987 8.20644 8.88263 7.87592 8.663C7.5454 8.44336 7.28779 8.13119 7.13566 7.76594C6.98354 7.4007 6.94374 6.9988 7.02129 6.61106C7.09884 6.22332 7.29026 5.86716 7.57135 5.58762C7.85244 5.30807 8.21056 5.1177 8.60044 5.04058C8.99032 4.96345 9.39444 5.00304 9.76169 5.15432C10.129 5.30561 10.4429 5.56181 10.6637 5.89052C10.8845 6.21923 11.0024 6.60568 11.0024 7.00102C11.0024 7.53115 10.7907 8.03956 10.4137 8.41442C10.0368 8.78927 9.5256 8.99987 8.99255 8.99987Z" fill="#353535"/>
</svg>
