<svg width="296" height="304" viewBox="0 0 296 304" fill="none" xmlns="http://www.w3.org/2000/svg">
<mask id="mask0_417_1981" style="mask-type:alpha" maskUnits="userSpaceOnUse" x="0" y="0" width="296" height="304">
<path d="M0 12C0 5.37259 5.37258 0 12 0H284C290.627 0 296 5.37258 296 12V292C296 298.627 290.627 304 284 304H12C5.37258 304 0 298.627 0 292V12Z" fill="#F4F4F8"/>
</mask>
<g mask="url(#mask0_417_1981)">
<rect width="296" height="304" fill="#EFEFEF"/>
</g>
<g clip-path="url(#clip0_417_1981)">
<path d="M148 87.1011C115.688 87.1011 89.4944 113.295 89.4944 145.607C89.4944 177.918 115.688 204.112 148 204.112C180.312 204.112 206.506 177.918 206.506 145.607C206.506 113.295 180.312 87.1011 148 87.1011Z" fill="#D2D2D2"/>
<path d="M85.3976 221.236C52.9841 221.236 26.7079 247.325 26.7079 279.508V297.973C26.7079 309.678 35.2512 319.657 46.8857 321.543C113.852 332.399 182.148 332.399 249.114 321.543C260.748 319.657 269.292 309.678 269.292 297.973V279.508C269.292 247.325 243.016 221.236 210.602 221.236H205.267C202.38 221.236 199.511 221.69 196.766 222.578L183.22 226.971C160.334 234.39 135.666 234.39 112.78 226.971L99.2338 222.578C96.489 221.69 93.6198 221.236 90.7324 221.236H85.3976Z" fill="#D2D2D2"/>
</g>
<defs>
<clipPath id="clip0_417_1981">
<rect x="21" y="50" width="254" height="254" rx="12" fill="white"/>
</clipPath>
</defs>
</svg>
