<svg width="25" height="24" viewBox="0 0 25 24" fill="none" xmlns="http://www.w3.org/2000/svg">
<path d="M22.2099 20.29L18.4999 16.61C19.94 14.8144 20.6374 12.5353 20.4487 10.2413C20.26 7.9473 19.1996 5.81278 17.4854 4.27664C15.7713 2.7405 13.5337 1.91951 11.2328 1.98247C8.93194 2.04543 6.74263 2.98756 5.11505 4.61514C3.48747 6.24272 2.54534 8.43203 2.48237 10.7329C2.41941 13.0338 3.24041 15.2714 4.77655 16.9855C6.31269 18.6997 8.44721 19.7601 10.7412 19.9488C13.0352 20.1375 15.3143 19.4401 17.1099 18L20.7899 21.68C20.8829 21.7737 20.9935 21.8481 21.1153 21.8989C21.2372 21.9497 21.3679 21.9758 21.4999 21.9758C21.6319 21.9758 21.7626 21.9497 21.8845 21.8989C22.0063 21.8481 22.1169 21.7737 22.2099 21.68C22.3901 21.4935 22.4909 21.2443 22.4909 20.985C22.4909 20.7257 22.3901 20.4765 22.2099 20.29ZM11.4999 18C10.1154 18 8.76206 17.5895 7.61091 16.8203C6.45977 16.0511 5.56256 14.9579 5.03275 13.6788C4.50293 12.3997 4.36431 10.9922 4.63441 9.63436C4.9045 8.2765 5.57119 7.02922 6.55016 6.05025C7.52912 5.07128 8.77641 4.4046 10.1343 4.1345C11.4921 3.8644 12.8996 4.00303 14.1787 4.53284C15.4578 5.06265 16.551 5.95986 17.3202 7.111C18.0894 8.26215 18.4999 9.61553 18.4999 11C18.4999 12.8565 17.7624 14.637 16.4497 15.9497C15.1369 17.2625 13.3564 18 11.4999 18Z" fill="white"/>
</svg>
