<svg width="119" height="30" viewBox="0 0 119 30" fill="none" xmlns="http://www.w3.org/2000/svg">
<path d="M43.4085 4.31863C43.1256 4.57008 42.9684 4.88439 42.9684 5.26156C42.9684 5.67016 43.157 5.95304 43.5027 6.20448C43.8485 6.4245 44.6657 6.70738 45.9544 7.02169C47.243 7.336 48.2488 7.80746 48.9403 8.43608C49.6632 9.06469 50.0089 9.97618 50.0089 11.202C50.0089 12.4278 49.5689 13.4021 48.6574 14.1565C47.7459 14.9108 46.5515 15.288 45.0743 15.288C42.937 15.288 40.9883 14.5022 39.291 12.8993L41.0826 10.6991C42.5284 11.9878 43.8799 12.6164 45.1371 12.6164C45.7029 12.6164 46.1429 12.4907 46.4572 12.2706C46.7716 12.0192 46.9287 11.7049 46.9287 11.2963C46.9287 10.8877 46.7716 10.5734 46.4258 10.3219C46.0801 10.0705 45.42 9.85046 44.4457 9.59901C42.8741 9.22184 41.7112 8.75038 40.9883 8.15319C40.2654 7.55601 39.8882 6.61308 39.8882 5.32441C39.8882 4.03575 40.3597 3.06139 41.2712 2.33848C42.1827 1.64701 43.3456 1.30127 44.7285 1.30127C45.64 1.30127 46.5201 1.45842 47.4316 1.77273C48.3431 2.08704 49.1289 2.52708 49.7889 3.09283L48.2488 5.29299C47.0859 4.41293 45.8601 3.97289 44.6028 3.97289C44.0999 3.97289 43.6913 4.06719 43.4085 4.31863Z" fill="#353535"/>
<path d="M62.6127 1.61523H65.63V15.1305H62.6127V9.81869H57.238V15.1305H54.2206V1.61523H57.238V7.27279H62.6127V1.61523Z" fill="#353535"/>
<path d="M70.9102 1.61523H73.9275V15.1305H70.9102V1.61523Z" fill="#353535"/>
<path d="M88.9527 1.61523V4.31829H82.2265V7.11563H88.2612V9.69297H82.1951V12.4903H89.1413V15.1619H79.1777V1.64667H88.9527V1.61523Z" fill="#353535"/>
<path d="M93.793 15.1305V1.61523H96.8103V12.4589H102.562V15.1619H93.793V15.1305Z" fill="#353535"/>
<path d="M117.052 3.37536C118.34 4.56974 119 6.20414 119 8.31C119 10.4159 118.372 12.0817 117.114 13.3075C115.857 14.5333 113.94 15.1305 111.363 15.1305H106.742V1.61523H111.52C113.908 1.61523 115.763 2.21242 117.052 3.37536ZM114.82 11.4217C115.574 10.7302 115.92 9.72439 115.92 8.37287C115.92 7.05277 115.543 6.01556 114.82 5.29265C114.066 4.56974 112.934 4.22399 111.394 4.22399H109.697V12.4589H111.614C113.028 12.4589 114.097 12.1131 114.82 11.4217Z" fill="#353535"/>
<path d="M42.1826 26.257C41.8683 26.477 41.5226 26.6028 41.1454 26.6028C40.454 26.6028 40.0139 26.1627 40.0139 25.2198V22.1082H39.291V21.7624H40.0139V20.5366H40.3911V21.7624H42.0884V22.1082H40.3911V25.1884C40.3911 25.8799 40.674 26.2256 41.1769 26.2256C41.4597 26.2256 41.7426 26.1313 42.0255 25.9427L42.1826 26.257Z" fill="#828282"/>
<path d="M43.7857 22.894C44.1 22.1082 44.76 21.6681 45.6401 21.6367V22.0453C44.54 22.0453 43.88 22.7682 43.7857 23.9312V26.6028H43.3771V21.6367H43.7857V22.894Z" fill="#828282"/>
<path d="M47.2423 20.2222C47.2423 20.4108 47.0851 20.5679 46.8965 20.5679C46.7079 20.5679 46.5508 20.4108 46.5508 20.2222C46.5508 20.0336 46.7079 19.8765 46.8965 19.8765C47.0851 19.8765 47.2423 20.0022 47.2423 20.2222ZM46.7079 26.6027V21.6366H47.0851V26.6027H46.7079Z" fill="#828282"/>
<path d="M54.0635 24.1199C54.0635 25.5658 53.0577 26.603 51.6747 26.603C50.7004 26.603 49.946 26.1001 49.5689 25.2829V28.426H49.1603V21.6055H49.5689V22.9256C49.946 22.1084 50.7004 21.6055 51.6747 21.6055C53.0577 21.6369 54.0635 22.6741 54.0635 24.1199ZM53.6549 24.1199C53.6549 22.8941 52.8063 21.9826 51.6119 21.9826C50.4175 21.9826 49.5689 22.8941 49.5689 24.1199C49.5689 25.3457 50.4175 26.2258 51.6119 26.2258C52.8063 26.2258 53.6549 25.3457 53.6549 24.1199Z" fill="#828282"/>
<path d="M55.541 26.6032V19.5312H55.9496V26.6032H55.541Z" fill="#828282"/>
<path d="M62.1718 24.2142H57.8344C57.8972 25.44 58.7459 26.2258 59.8774 26.2258C60.5689 26.2258 61.1661 25.9744 61.5432 25.5343L61.7632 25.7858C61.2918 26.2887 60.6317 26.5715 59.846 26.5715C58.4316 26.5715 57.4258 25.5343 57.4258 24.0885C57.4258 22.6427 58.4316 21.6055 59.846 21.6055C61.3232 21.6369 62.2033 22.7055 62.1718 24.2142ZM61.7947 23.8685C61.7318 22.737 60.9775 21.9826 59.846 21.9826C58.7459 21.9826 57.9287 22.737 57.8344 23.8685H61.7947Z" fill="#828282"/>
<path d="M70.753 26.6032H70.3444V25.3145C69.9672 26.1317 69.2129 26.6346 68.2385 26.6346C66.8241 26.6346 65.8184 25.5974 65.8184 24.1202C65.8184 22.6429 66.8241 21.6057 68.2385 21.6057C69.2129 21.6057 69.9987 22.1086 70.3758 22.9258V19.5312H70.7844V26.6032H70.753ZM70.3758 24.1202C70.3758 22.8944 69.4958 21.9829 68.3014 21.9829C67.107 21.9829 66.227 22.8944 66.227 24.1202C66.227 25.346 67.107 26.2575 68.3014 26.2575C69.4958 26.2575 70.3758 25.3774 70.3758 24.1202Z" fill="#828282"/>
<path d="M76.9767 24.2142H72.6392C72.702 25.44 73.5507 26.2258 74.6822 26.2258C75.3737 26.2258 75.9709 25.9744 76.348 25.5343L76.568 25.7858C76.0966 26.2887 75.4365 26.5715 74.6508 26.5715C73.2364 26.5715 72.2306 25.5343 72.2306 24.0885C72.2306 22.6427 73.2364 21.6055 74.6508 21.6055C76.128 21.6369 77.0081 22.7055 76.9767 24.2142ZM76.6309 23.8685C76.568 22.737 75.8137 21.9826 74.6822 21.9826C73.5821 21.9826 72.7649 22.737 72.6706 23.8685H76.6309Z" fill="#828282"/>
<path d="M78.8945 21.0711V21.7625H80.4346V22.1083H78.8945V26.6029H78.5173V22.1083H77.8887V21.7625H78.5173V21.1025C78.5173 20.1281 79.2088 19.4995 79.9945 19.4995C80.3717 19.4995 80.7174 19.6252 81.0003 19.8453L80.8117 20.1596C80.5603 19.971 80.2774 19.8767 79.9945 19.8767C79.3659 19.9081 78.8945 20.3796 78.8945 21.0711Z" fill="#828282"/>
<path d="M85.4004 24.2142H81.0629C81.1258 25.44 81.9744 26.2258 83.1059 26.2258C83.7974 26.2258 84.3946 25.9744 84.7717 25.5343L84.9918 25.7858C84.5203 26.2887 83.8602 26.5715 83.0745 26.5715C81.6601 26.5715 80.6543 25.5343 80.6543 24.0885C80.6543 22.6427 81.6601 21.6055 83.0745 21.6055C84.5517 21.6369 85.4318 22.7055 85.4004 24.2142ZM85.0546 23.8685C84.9918 22.737 84.2374 21.9826 83.1059 21.9826C82.0058 21.9826 81.1886 22.737 81.0943 23.8685H85.0546Z" fill="#828282"/>
<path d="M91.1833 23.5858V26.6032H90.7747V23.6487C90.7747 22.6429 90.1776 22.0142 89.1403 22.0142C88.0088 22.0457 87.2859 22.7686 87.1916 23.9001V26.5717H86.783V21.6057H87.1916V22.8629C87.5374 22.0457 88.2288 21.6056 89.2346 21.5742C90.4604 21.6371 91.1833 22.36 91.1833 23.5858Z" fill="#828282"/>
<path d="M95.6147 22.0139L95.4575 22.3283C95.1118 22.1082 94.6718 21.9825 94.2003 21.9825C93.5088 21.9825 92.9745 22.234 92.9745 22.8311C92.9745 24.1512 95.8661 23.5226 95.8661 25.2513C95.8661 26.1628 95.0489 26.5714 94.1374 26.5714C93.446 26.5714 92.7859 26.32 92.3145 25.8799L92.503 25.5656C92.9431 25.9742 93.5403 26.1943 94.1689 26.1943C94.8604 26.1943 95.4575 25.9114 95.489 25.2828C95.5204 23.8684 92.5973 24.5284 92.5973 22.7997C92.5973 21.9197 93.3517 21.5425 94.2317 21.5425C94.7346 21.6368 95.2061 21.7939 95.6147 22.0139Z" fill="#828282"/>
<path d="M101.367 24.2142H97.0295C97.0924 25.44 97.941 26.2258 99.0725 26.2258C99.764 26.2258 100.361 25.9744 100.738 25.5343L100.958 25.7858C100.487 26.2887 99.8269 26.5715 99.0411 26.5715C97.6267 26.5715 96.6209 25.5343 96.6209 24.0885C96.6209 22.6427 97.6267 21.6055 99.0411 21.6055C100.518 21.6369 101.398 22.7055 101.367 24.2142ZM101.021 23.8685C100.958 22.737 100.204 21.9826 99.0725 21.9826C97.9724 21.9826 97.1552 22.737 97.0609 23.8685H101.021Z" fill="#828282"/>
<path d="M20.6751 24.9239C17.7148 24.9549 15.2196 23.7925 13.6232 21.6537C11.6239 18.9724 11.2984 15.0513 12.6778 10.6032C12.7398 10.4172 12.6313 10.2157 12.4608 10.1383C7.90426 8.35592 4.10711 9.96777 1.48785 14.7723C1.44136 14.8498 1.42586 14.9273 1.44136 15.0048C2.57275 22.0876 8.89617 27.3107 14.4447 29.8369C14.5376 29.8834 14.6616 29.8834 14.7391 29.8369C16.8779 28.938 19.1407 27.3727 20.9385 25.5283C21.1865 25.3268 21.016 24.9239 20.6751 24.9239ZM2.20079 15.0358C4.57207 10.7737 7.79577 9.31683 11.7789 10.6962C9.93457 14.3229 9.11315 17.4846 9.26813 20.3518C9.42312 23.1415 10.5235 25.6988 12.6313 28.0856C7.91975 25.4198 3.1927 20.8788 2.20079 15.0358ZM14.6616 29.0775C11.6704 26.3498 10.1825 23.56 10.0121 20.3208C9.90357 18.337 10.291 16.1982 11.19 13.8424C11.0815 14.7413 11.0505 15.6092 11.097 16.4307C11.221 18.616 11.8564 20.5378 13.0188 22.1031C14.5996 24.2264 16.9709 25.4663 19.7762 25.6523C18.2263 27.0937 16.413 28.3181 14.6616 29.0775Z" fill="url(#paint0_linear_782_2023)"/>
<path d="M7.79578 8.23214C11.1125 7.84468 14.6771 9.51852 17.8388 12.9282C17.9783 13.0677 18.1953 13.0832 18.3503 12.9592C20.6751 11.0994 21.7755 8.88308 21.6515 6.37231C21.5585 4.74496 20.9541 2.99363 19.8227 1.1338C19.7762 1.0563 19.7142 1.00981 19.6367 0.978812C12.9413 -1.57845 5.25401 1.28878 0.278975 4.82246C0.201482 4.88445 0.139488 4.97744 0.123989 5.08593C7.02078e-07 6.06234 -0.0309974 7.10074 0.0309969 8.18564C0.10849 9.65801 0.356468 11.1769 0.743932 12.6182C0.836923 12.9437 1.27088 12.9902 1.44137 12.6957C2.88273 10.123 5.14552 8.54211 7.79578 8.23214ZM19.2337 1.64525C20.2566 3.35009 20.8146 4.94644 20.8921 6.41881C21.0005 8.55761 20.1016 10.4794 18.1953 12.1223C13.8402 5.4114 8.97367 2.88513 2.71225 4.17151C7.39281 1.39727 13.6852 -0.416058 19.2337 1.64525ZM1.25538 11.5643C0.790425 9.50302 0.635439 7.31772 0.852419 5.4269C6.88136 3.50508 11.5929 4.93094 15.762 10.03C13.1428 8.07715 10.3685 7.17824 7.71828 7.48821C5.08353 7.78268 2.82074 9.22405 1.25538 11.5643Z" fill="url(#paint1_linear_782_2023)"/>
<path d="M29.1212 6.1865C29.0902 5.52006 29.0437 5.07061 29.0437 5.07061C29.0282 4.96212 28.9662 4.86912 28.9042 4.80713C27.0599 3.41226 24.5646 2.23437 22.0693 1.58343C21.7439 1.50594 21.4804 1.84691 21.6509 2.14138C23.1542 4.68314 23.4022 7.44189 22.3483 9.89066C21.0309 12.9594 17.7917 15.2067 13.2661 16.2296C13.0802 16.2761 12.9562 16.4465 12.9872 16.648C13.7311 21.4836 17.0168 23.9634 22.4878 23.8239C22.5653 23.8239 22.6583 23.7929 22.7203 23.7464C29.2452 18.4304 29.2762 8.96074 29.1212 6.1865ZM23.0302 10.1851C24.0686 7.76736 23.9601 5.0861 22.7203 2.55984C24.7506 3.17978 26.7034 4.15619 28.2378 5.27209C26.8739 11.456 23.2937 14.8192 16.7998 15.8886C19.8065 14.6022 21.9763 12.6339 23.0302 10.1851ZM22.3173 23.0954C17.4353 23.1729 14.568 21.1116 13.7776 16.958C21.7594 16.5395 26.3779 13.5948 28.4082 7.53488C28.4082 11.146 27.7108 18.6318 22.3173 23.0954Z" fill="url(#paint2_linear_782_2023)"/>
<defs>
<linearGradient id="paint0_linear_782_2023" x1="20.3056" y1="10.2158" x2="-5.48107" y2="37.4677" gradientUnits="userSpaceOnUse">
<stop stop-color="#2751E8"/>
<stop offset="1" stop-color="#00D4FF"/>
</linearGradient>
<linearGradient id="paint1_linear_782_2023" x1="23.6309" y1="-6.16837" x2="-14.7248" y2="34.3667" gradientUnits="userSpaceOnUse">
<stop stop-color="#2751E8"/>
<stop offset="1" stop-color="#00D4FF"/>
</linearGradient>
<linearGradient id="paint2_linear_782_2023" x1="34.8033" y1="-0.507187" x2="-3.56974" y2="40.0462" gradientUnits="userSpaceOnUse">
<stop stop-color="#2751E8"/>
<stop offset="1" stop-color="#00D4FF"/>
</linearGradient>
</defs>
</svg>
