<svg width="18" height="18" viewBox="0 0 18 18" fill="none" xmlns="http://www.w3.org/2000/svg">
<path d="M9 12.8182C9.09889 12.8182 9.19556 12.7862 9.27779 12.7263C9.36001 12.6663 9.4241 12.5811 9.46194 12.4815C9.49978 12.3818 9.50969 12.2721 9.49039 12.1663C9.4711 12.0605 9.42348 11.9633 9.35355 11.887C9.28363 11.8107 9.19454 11.7588 9.09755 11.7378C9.00055 11.7167 8.90002 11.7275 8.80866 11.7688C8.7173 11.8101 8.63921 11.88 8.58427 11.9697C8.52932 12.0594 8.5 12.1648 8.5 12.2727C8.5 12.4174 8.55268 12.5561 8.64645 12.6584C8.74021 12.7607 8.86739 12.8182 9 12.8182ZM11.5 12.8182C11.5989 12.8182 11.6956 12.7862 11.7778 12.7263C11.86 12.6663 11.9241 12.5811 11.9619 12.4815C11.9998 12.3818 12.0097 12.2721 11.9904 12.1663C11.9711 12.0605 11.9235 11.9633 11.8536 11.887C11.7836 11.8107 11.6945 11.7588 11.5975 11.7378C11.5006 11.7167 11.4 11.7275 11.3087 11.7688C11.2173 11.8101 11.1392 11.88 11.0843 11.9697C11.0293 12.0594 11 12.1648 11 12.2727C11 12.4174 11.0527 12.5561 11.1464 12.6584C11.2402 12.7607 11.3674 12.8182 11.5 12.8182ZM11.5 10.6364C11.5989 10.6364 11.6956 10.6044 11.7778 10.5444C11.86 10.4845 11.9241 10.3993 11.9619 10.2996C11.9998 10.2 12.0097 10.0903 11.9904 9.9845C11.9711 9.87869 11.9235 9.7815 11.8536 9.70521C11.7836 9.62893 11.6945 9.57698 11.5975 9.55594C11.5006 9.53489 11.4 9.54569 11.3087 9.58698C11.2173 9.62826 11.1392 9.69817 11.0843 9.78787C11.0293 9.87757 11 9.98303 11 10.0909C11 10.2356 11.0527 10.3743 11.1464 10.4766C11.2402 10.5789 11.3674 10.6364 11.5 10.6364ZM9 10.6364C9.09889 10.6364 9.19556 10.6044 9.27779 10.5444C9.36001 10.4845 9.4241 10.3993 9.46194 10.2996C9.49978 10.2 9.50969 10.0903 9.49039 9.9845C9.4711 9.87869 9.42348 9.7815 9.35355 9.70521C9.28363 9.62893 9.19454 9.57698 9.09755 9.55594C9.00055 9.53489 8.90002 9.54569 8.80866 9.58698C8.7173 9.62826 8.63921 9.69817 8.58427 9.78787C8.52932 9.87757 8.5 9.98303 8.5 10.0909C8.5 10.2356 8.55268 10.3743 8.64645 10.4766C8.74021 10.5789 8.86739 10.6364 9 10.6364ZM12.5 4.09091H12V3.54545C12 3.40079 11.9473 3.26205 11.8536 3.15976C11.7598 3.05747 11.6326 3 11.5 3C11.3674 3 11.2402 3.05747 11.1464 3.15976C11.0527 3.26205 11 3.40079 11 3.54545V4.09091H7V3.54545C7 3.40079 6.94732 3.26205 6.85355 3.15976C6.75979 3.05747 6.63261 3 6.5 3C6.36739 3 6.24021 3.05747 6.14645 3.15976C6.05268 3.26205 6 3.40079 6 3.54545V4.09091H5.5C5.10218 4.09091 4.72064 4.26331 4.43934 4.57019C4.15804 4.87707 4 5.29328 4 5.72727V13.3636C4 13.7976 4.15804 14.2138 4.43934 14.5207C4.72064 14.8276 5.10218 15 5.5 15H12.5C12.8978 15 13.2794 14.8276 13.5607 14.5207C13.842 14.2138 14 13.7976 14 13.3636V5.72727C14 5.29328 13.842 4.87707 13.5607 4.57019C13.2794 4.26331 12.8978 4.09091 12.5 4.09091ZM13 13.3636C13 13.5083 12.9473 13.647 12.8536 13.7493C12.7598 13.8516 12.6326 13.9091 12.5 13.9091H5.5C5.36739 13.9091 5.24021 13.8516 5.14645 13.7493C5.05268 13.647 5 13.5083 5 13.3636V8.45455H13V13.3636ZM13 7.36364H5V5.72727C5 5.58261 5.05268 5.44387 5.14645 5.34158C5.24021 5.23929 5.36739 5.18182 5.5 5.18182H6V5.72727C6 5.87194 6.05268 6.01067 6.14645 6.11297C6.24021 6.21526 6.36739 6.27273 6.5 6.27273C6.63261 6.27273 6.75979 6.21526 6.85355 6.11297C6.94732 6.01067 7 5.87194 7 5.72727V5.18182H11V5.72727C11 5.87194 11.0527 6.01067 11.1464 6.11297C11.2402 6.21526 11.3674 6.27273 11.5 6.27273C11.6326 6.27273 11.7598 6.21526 11.8536 6.11297C11.9473 6.01067 12 5.87194 12 5.72727V5.18182H12.5C12.6326 5.18182 12.7598 5.23929 12.8536 5.34158C12.9473 5.44387 13 5.58261 13 5.72727V7.36364ZM6.5 10.6364C6.59889 10.6364 6.69556 10.6044 6.77779 10.5444C6.86001 10.4845 6.9241 10.3993 6.96194 10.2996C6.99978 10.2 7.00969 10.0903 6.99039 9.9845C6.9711 9.87869 6.92348 9.7815 6.85355 9.70521C6.78363 9.62893 6.69454 9.57698 6.59755 9.55594C6.50055 9.53489 6.40002 9.54569 6.30866 9.58698C6.2173 9.62826 6.13921 9.69817 6.08427 9.78787C6.02932 9.87757 6 9.98303 6 10.0909C6 10.2356 6.05268 10.3743 6.14645 10.4766C6.24021 10.5789 6.36739 10.6364 6.5 10.6364ZM6.5 12.8182C6.59889 12.8182 6.69556 12.7862 6.77779 12.7263C6.86001 12.6663 6.9241 12.5811 6.96194 12.4815C6.99978 12.3818 7.00969 12.2721 6.99039 12.1663C6.9711 12.0605 6.92348 11.9633 6.85355 11.887C6.78363 11.8107 6.69454 11.7588 6.59755 11.7378C6.50055 11.7167 6.40002 11.7275 6.30866 11.7688C6.2173 11.8101 6.13921 11.88 6.08427 11.9697C6.02932 12.0594 6 12.1648 6 12.2727C6 12.4174 6.05268 12.5561 6.14645 12.6584C6.24021 12.7607 6.36739 12.8182 6.5 12.8182Z" fill="#353535"/>
</svg>
