<svg width="25" height="24" viewBox="0 0 25 24" fill="none" xmlns="http://www.w3.org/2000/svg">
<path d="M19.6111 8.41506L14.2778 3.68672C13.7889 3.24449 13.156 3 12.5 3C11.8441 3 11.2112 3.24449 10.7223 3.68672L5.38897 8.41506C5.10663 8.67042 4.88133 8.98368 4.72806 9.33398C4.57479 9.68428 4.49707 10.0636 4.50008 10.4466V18.3032C4.50008 19.0185 4.78103 19.7044 5.28113 20.2101C5.78122 20.7159 6.45949 21 7.16673 21H17.8333C18.5406 21 19.2188 20.7159 19.7189 20.2101C20.219 19.7044 20.5 19.0185 20.5 18.3032V10.4376C20.5017 10.0561 20.4234 9.67853 20.2702 9.32988C20.1169 8.98122 19.8923 8.66942 19.6111 8.41506ZM14.2778 19.2022H10.7223V14.7075C10.7223 14.4691 10.8159 14.2405 10.9826 14.0719C11.1493 13.9033 11.3754 13.8086 11.6111 13.8086H13.3889C13.6247 13.8086 13.8507 13.9033 14.0174 14.0719C14.1841 14.2405 14.2778 14.4691 14.2778 14.7075V19.2022ZM18.7222 18.3032C18.7222 18.5416 18.6286 18.7703 18.4619 18.9389C18.2952 19.1074 18.0691 19.2022 17.8333 19.2022H16.0556V14.7075C16.0556 13.9923 15.7746 13.3064 15.2745 12.8006C14.7744 12.2949 14.0961 12.0108 13.3889 12.0108H11.6111C10.9039 12.0108 10.2256 12.2949 9.72554 12.8006C9.22545 13.3064 8.9445 13.9923 8.9445 14.7075V19.2022H7.16673C6.93099 19.2022 6.7049 19.1074 6.5382 18.9389C6.3715 18.7703 6.27785 18.5416 6.27785 18.3032V10.4376C6.27801 10.31 6.30504 10.1839 6.35715 10.0676C6.40926 9.95138 6.48525 9.84768 6.58007 9.76345L11.9134 5.04409C12.0756 4.89998 12.2841 4.8205 12.5 4.8205C12.7159 4.8205 12.9245 4.89998 13.0867 5.04409L18.42 9.76345C18.5148 9.84768 18.5908 9.95138 18.6429 10.0676C18.695 10.1839 18.722 10.31 18.7222 10.4376V18.3032Z" fill="white"/>
</svg>
