<svg width="18" height="18" viewBox="0 0 18 18" fill="none" xmlns="http://www.w3.org/2000/svg">
<path d="M10.1739 8.99929L13.7537 5.42723C13.9105 5.27044 13.9986 5.05779 13.9986 4.83605C13.9986 4.61432 13.9105 4.40167 13.7537 4.24487C13.597 4.08808 13.3843 4 13.1626 4C12.9409 4 12.7283 4.08808 12.5715 4.24487L9 7.82526L5.42845 4.24487C5.27168 4.08808 5.05906 4 4.83736 4C4.61565 4 4.40303 4.08808 4.24626 4.24487C4.08949 4.40167 4.00142 4.61432 4.00142 4.83605C4.00142 5.05779 4.08949 5.27044 4.24626 5.42723L7.82613 8.99929L4.24626 12.5713C4.16823 12.6488 4.10629 12.7408 4.06403 12.8423C4.02176 12.9438 4 13.0526 4 13.1625C4 13.2724 4.02176 13.3813 4.06403 13.4827C4.10629 13.5842 4.16823 13.6763 4.24626 13.7537C4.32365 13.8317 4.41573 13.8937 4.51718 13.936C4.61864 13.9782 4.72745 14 4.83736 14C4.94726 14 5.05608 13.9782 5.15753 13.936C5.25898 13.8937 5.35106 13.8317 5.42845 13.7537L9 10.1733L12.5715 13.7537C12.6489 13.8317 12.741 13.8937 12.8425 13.936C12.9439 13.9782 13.0527 14 13.1626 14C13.2725 14 13.3814 13.9782 13.4828 13.936C13.5843 13.8937 13.6763 13.8317 13.7537 13.7537C13.8318 13.6763 13.8937 13.5842 13.936 13.4827C13.9782 13.3813 14 13.2724 14 13.1625C14 13.0526 13.9782 12.9438 13.936 12.8423C13.8937 12.7408 13.8318 12.6488 13.7537 12.5713L10.1739 8.99929Z" fill="#353535"/>
</svg>
