<svg width="25" height="24" viewBox="0 0 25 24" fill="none" xmlns="http://www.w3.org/2000/svg">
<path d="M12.5127 3C11.3324 3 10.1638 3.23278 9.07336 3.68505C7.98297 4.13733 6.99221 4.80023 6.15766 5.63592C4.47221 7.32368 3.52533 9.61276 3.52533 11.9996C3.51748 14.0777 4.23604 16.0931 5.55647 17.6963L3.759 19.4963C3.6343 19.6228 3.54982 19.7835 3.51623 19.9581C3.48264 20.1327 3.50144 20.3133 3.57027 20.4772C3.64492 20.6392 3.76593 20.7752 3.91794 20.8682C4.06995 20.9611 4.24612 21.0067 4.42407 20.9992H12.5127C14.8963 20.9992 17.1822 20.051 18.8677 18.3633C20.5531 16.6755 21.5 14.3864 21.5 11.9996C21.5 9.61276 20.5531 7.32368 18.8677 5.63592C17.1822 3.94817 14.8963 3 12.5127 3ZM12.5127 19.1993H6.59001L7.42583 18.3623C7.59323 18.1937 7.68718 17.9656 7.68718 17.7278C7.68718 17.4901 7.59323 17.262 7.42583 17.0934C6.24902 15.9163 5.51618 14.367 5.35218 12.7095C5.18818 11.052 5.60315 9.38882 6.52641 8.00335C7.44966 6.61787 8.82408 5.59581 10.4155 5.11128C12.0069 4.62676 13.7168 4.70975 15.254 5.34612C16.7912 5.98249 18.0604 7.13286 18.8455 8.60125C19.6307 10.0696 19.8831 11.7652 19.5597 13.399C19.2364 15.0329 18.3574 16.5039 17.0724 17.5616C15.7874 18.6192 14.176 19.198 12.5127 19.1993ZM15.2089 11.0996H13.4114V9.29972C13.4114 9.06104 13.3167 8.83213 13.1482 8.66335C12.9796 8.49458 12.751 8.39976 12.5127 8.39976C12.2743 8.39976 12.0457 8.49458 11.8772 8.66335C11.7086 8.83213 11.6139 9.06104 11.6139 9.29972V11.0996H9.81647C9.57811 11.0996 9.34951 11.1945 9.18097 11.3632C9.01242 11.532 8.91773 11.7609 8.91773 11.9996C8.91773 12.2383 9.01242 12.4672 9.18097 12.636C9.34951 12.8047 9.57811 12.8996 9.81647 12.8996H11.6139V14.6995C11.6139 14.9382 11.7086 15.1671 11.8772 15.3358C12.0457 15.5046 12.2743 15.5994 12.5127 15.5994C12.751 15.5994 12.9796 15.5046 13.1482 15.3358C13.3167 15.1671 13.4114 14.9382 13.4114 14.6995V12.8996H15.2089C15.4472 12.8996 15.6758 12.8047 15.8444 12.636C16.0129 12.4672 16.1076 12.2383 16.1076 11.9996C16.1076 11.7609 16.0129 11.532 15.8444 11.3632C15.6758 11.1945 15.4472 11.0996 15.2089 11.0996Z" fill="white"/>
</svg>
